<mxfile host="Electron" agent="Mozilla/5.0 (Windows NT 10.0; Win64; x64) AppleWebKit/537.36 (KHTML, like Gecko) draw.io/28.2.8 Chrome/140.0.7339.240 Electron/38.4.0 Safari/537.36" version="28.2.8">
  <diagram id="use_case_diagram" name="Use Case Diagram">
    <mxGraphModel dx="1213" dy="828" grid="1" gridSize="10" guides="1" tooltips="1" connect="1" arrows="1" fold="1" page="1" pageScale="1" pageWidth="827" pageHeight="1169" math="0" shadow="0">
      <root>
        <mxCell id="0" />
        <mxCell id="1" parent="0" />
        <mxCell id="rkNO9EsD8ZmXl_RMkuSH-8" value="" style="rounded=0;whiteSpace=wrap;html=1;glass=0;shadow=0;fillColor=default;direction=west;" parent="1" vertex="1">
          <mxGeometry x="210" y="37.5" width="470" height="305" as="geometry" />
        </mxCell>
        <mxCell id="2" value="User" style="shape=umlActor;verticalLabelPosition=bottom;verticalAlign=top;" parent="1" vertex="1">
          <mxGeometry x="80" y="150" width="40" height="80" as="geometry" />
        </mxCell>
        <mxCell id="3" value="Xem chi tiết phim" style="ellipse;whiteSpace=wrap;html=1;" parent="1" vertex="1">
          <mxGeometry x="260" y="160" width="140" height="60" as="geometry" />
        </mxCell>
        <mxCell id="4" value="Xem trailer" style="ellipse;whiteSpace=wrap;html=1;" parent="1" vertex="1">
          <mxGeometry x="500" y="100" width="120" height="50" as="geometry" />
        </mxCell>
        <mxCell id="5" value="Xem bình luận" style="ellipse;whiteSpace=wrap;html=1;" parent="1" vertex="1">
          <mxGeometry x="510" y="230" width="120" height="50" as="geometry" />
        </mxCell>
        <mxCell id="6" value="" style="endArrow=none;" parent="1" source="2" target="3" edge="1">
          <mxGeometry relative="1" as="geometry" />
        </mxCell>
        <mxCell id="7" value="«extend»" style="endArrow=open;dashed=1;exitX=0;exitY=0.5;exitDx=0;exitDy=0;" parent="1" source="4" target="3" edge="1">
          <mxGeometry relative="1" as="geometry" />
        </mxCell>
        <mxCell id="8" value="«extend»" style="endArrow=open;dashed=1;" parent="1" source="5" target="3" edge="1">
          <mxGeometry relative="1" as="geometry" />
        </mxCell>
        <mxCell id="rkNO9EsD8ZmXl_RMkuSH-15" value="&lt;font style=&quot;font-size: 14px;&quot;&gt;&lt;b&gt;app xem phim&lt;/b&gt;&lt;/font&gt;" style="text;html=1;whiteSpace=wrap;strokeColor=none;fillColor=none;align=center;verticalAlign=middle;rounded=0;" parent="1" vertex="1">
          <mxGeometry x="220" y="50" width="100" height="30" as="geometry" />
        </mxCell>
      </root>
    </mxGraphModel>
  </diagram>
</mxfile>
